<?xml version="1.0" encoding="UTF-8"?>
<svg width="24px" height="24px" viewBox="0 0 24 24" version="1.1" xmlns="http://www.w3.org/2000/svg" xmlns:xlink="http://www.w3.org/1999/xlink">
    <!-- Generator: Sketch 53.2 (72643) - https://sketchapp.com -->
    <title>aide</title>
    <desc>Created with Sketch.</desc>
    <g id="Design-app" stroke="none" stroke-width="1" fill="none" fill-rule="evenodd">
        <g id="page-produit" transform="translate(-332.000000, -38.000000)">
            <g id="aide" transform="translate(333.000000, 39.000000)">
                <circle id="Oval" stroke="#65B389" stroke-width="2" cx="11" cy="11" r="11"></circle>
                <path d="M6,8.09074733 C6,7.47093403 6.2033313,6.84297471 6.61,6.20685053 C7.0166687,5.57072636 7.6099961,5.04389295 8.39,4.62633452 C9.1700039,4.20877609 10.0799948,4 11.12,4 C12.0866715,4 12.9399963,4.17452376 13.68,4.52357651 C14.4200037,4.87262927 14.9916647,5.34726865 15.395,5.9475089 C15.7983354,6.54774915 16,7.20017441 16,7.90480427 C16,8.45937407 15.8850012,8.94543089 15.655,9.36298932 C15.4249988,9.78054776 15.1516682,10.1410127 14.835,10.444395 C14.5183318,10.7477773 13.9500041,11.2583001 13.13,11.9759786 C12.9033322,12.1782335 12.7216674,12.3560194 12.585,12.5093416 C12.4483326,12.6626639 12.346667,12.8029353 12.28,12.9301601 C12.213333,13.057385 12.1616669,13.1846079 12.125,13.3118327 C12.0883331,13.4390576 12.0333337,13.6625132 11.96,13.9822064 C11.8333327,14.6607389 11.43667,15 10.77,15 C10.4233316,15 10.1316679,14.8890877 9.895,14.6672598 C9.65833215,14.4454319 9.54,14.1159571 9.54,13.6788256 C9.54,13.1307802 9.6266658,12.6561408 9.8,12.2548932 C9.9733342,11.8536457 10.2033319,11.501336 10.49,11.1979537 C10.7766681,10.8945714 11.1633309,10.5341065 11.65,10.116548 C12.0766688,9.75118441 12.3849991,9.47553474 12.575,9.28959075 C12.7650009,9.10364676 12.9249994,8.89650173 13.055,8.66814947 C13.1850006,8.4397972 13.25,8.1918756 13.25,7.92437722 C13.25,7.40242918 13.0516687,6.96204213 12.655,6.60320285 C12.2583313,6.24436357 11.7466698,6.06494662 11.12,6.06494662 C10.386663,6.06494662 9.8466684,6.24599463 9.5,6.60809609 C9.1533316,6.97019754 8.8600012,7.5035552 8.62,8.20818505 C8.3933322,8.94543666 7.9633365,9.31405694 7.33,9.31405694 C6.9566648,9.31405694 6.64166795,9.18520295 6.385,8.9274911 C6.12833205,8.66977926 6,8.39086746 6,8.09074733 Z M10.5149502,19 C10.1096325,19 9.75581547,18.8678943 9.45348837,18.6036789 C9.15116128,18.3394636 9,17.969902 9,17.4949833 C9,17.0735765 9.14617794,16.719065 9.43853821,16.4314381 C9.73089847,16.1438113 10.0896989,16 10.5149502,16 C10.9335569,16 11.2857129,16.1438113 11.5714286,16.4314381 C11.8571443,16.719065 12,17.0735765 12,17.4949833 C12,17.963213 11.8504998,18.3311023 11.551495,18.5986622 C11.2524902,18.8662221 10.9069787,19 10.5149502,19 Z" id="?" fill="#65B389" fill-rule="nonzero"></path>
            </g>
        </g>
    </g>
</svg>